<mxfile host="app.diagrams.net" modified="2022-03-29T12:31:08.338Z" agent="5.0 (Windows NT 10.0; Win64; x64) AppleWebKit/537.36 (KHTML, like Gecko) Chrome/99.0.4844.74 Safari/537.36" etag="XhRUs32Tz2tXiTeRL-N2" version="17.2.4" type="github">
  <diagram id="K5D_BHFM27SA3R0Y11nE" name="Page-1">
    <mxGraphModel dx="1422" dy="757" grid="1" gridSize="10" guides="1" tooltips="1" connect="1" arrows="1" fold="1" page="1" pageScale="1" pageWidth="850" pageHeight="1100" math="0" shadow="0">
      <root>
        <mxCell id="0" />
        <mxCell id="1" parent="0" />
        <mxCell id="8itjGVCMwVhG1kfjSsnW-1" value="AWS Cloud" style="points=[[0,0],[0.25,0],[0.5,0],[0.75,0],[1,0],[1,0.25],[1,0.5],[1,0.75],[1,1],[0.75,1],[0.5,1],[0.25,1],[0,1],[0,0.75],[0,0.5],[0,0.25]];outlineConnect=0;gradientColor=none;html=1;whiteSpace=wrap;fontSize=12;fontStyle=0;container=1;pointerEvents=0;collapsible=0;recursiveResize=0;shape=mxgraph.aws4.group;grIcon=mxgraph.aws4.group_aws_cloud_alt;strokeColor=#232F3E;fillColor=none;verticalAlign=top;align=left;spacingLeft=30;fontColor=#232F3E;dashed=0;" parent="1" vertex="1">
          <mxGeometry x="150" y="270" width="780" height="640" as="geometry" />
        </mxCell>
        <mxCell id="8itjGVCMwVhG1kfjSsnW-2" value="Connect Cloud IVR" style="fillColor=none;strokeColor=#5A6C86;dashed=1;verticalAlign=top;fontStyle=1;fontColor=#5A6C86;" parent="8itjGVCMwVhG1kfjSsnW-1" vertex="1">
          <mxGeometry x="30" y="30" width="550" height="180" as="geometry" />
        </mxCell>
        <mxCell id="8itjGVCMwVhG1kfjSsnW-4" value="FIL Integration Layer" style="fillColor=none;strokeColor=#5A6C86;dashed=1;verticalAlign=top;fontStyle=1;fontColor=#5A6C86;" parent="8itjGVCMwVhG1kfjSsnW-1" vertex="1">
          <mxGeometry x="30" y="219" width="550" height="190" as="geometry" />
        </mxCell>
        <mxCell id="8itjGVCMwVhG1kfjSsnW-6" value="Analytics and Reporting" style="fillColor=none;strokeColor=#5A6C86;dashed=1;verticalAlign=top;fontStyle=1;fontColor=#5A6C86;" parent="8itjGVCMwVhG1kfjSsnW-1" vertex="1">
          <mxGeometry x="610" y="30" width="150" height="590" as="geometry" />
        </mxCell>
        <mxCell id="8itjGVCMwVhG1kfjSsnW-10" style="edgeStyle=orthogonalEdgeStyle;rounded=0;orthogonalLoop=1;jettySize=auto;html=1;entryX=0;entryY=0.5;entryDx=0;entryDy=0;" parent="8itjGVCMwVhG1kfjSsnW-1" source="8itjGVCMwVhG1kfjSsnW-8" target="8itjGVCMwVhG1kfjSsnW-9" edge="1">
          <mxGeometry relative="1" as="geometry" />
        </mxCell>
        <mxCell id="6MaKEtEqFqhA6RrxHM5q-38" value="" style="edgeStyle=none;rounded=0;orthogonalLoop=1;jettySize=auto;html=1;fontSize=8;startArrow=none;startFill=0;endArrow=classic;endFill=1;" edge="1" parent="8itjGVCMwVhG1kfjSsnW-1" source="8itjGVCMwVhG1kfjSsnW-8" target="6MaKEtEqFqhA6RrxHM5q-24">
          <mxGeometry relative="1" as="geometry" />
        </mxCell>
        <mxCell id="6MaKEtEqFqhA6RrxHM5q-40" value="Call Metadata" style="edgeLabel;html=1;align=center;verticalAlign=middle;resizable=0;points=[];fontSize=8;" vertex="1" connectable="0" parent="6MaKEtEqFqhA6RrxHM5q-38">
          <mxGeometry x="-0.338" y="-1" relative="1" as="geometry">
            <mxPoint x="-2" y="19" as="offset" />
          </mxGeometry>
        </mxCell>
        <mxCell id="8itjGVCMwVhG1kfjSsnW-8" value="&lt;font style=&quot;font-size: 10px&quot;&gt;Amazon Connect&lt;/font&gt;" style="sketch=0;points=[[0,0,0],[0.25,0,0],[0.5,0,0],[0.75,0,0],[1,0,0],[0,1,0],[0.25,1,0],[0.5,1,0],[0.75,1,0],[1,1,0],[0,0.25,0],[0,0.5,0],[0,0.75,0],[1,0.25,0],[1,0.5,0],[1,0.75,0]];outlineConnect=0;fontColor=#232F3E;gradientColor=#FF5252;gradientDirection=north;fillColor=#C7131F;strokeColor=#ffffff;dashed=0;verticalLabelPosition=bottom;verticalAlign=top;align=center;html=1;fontSize=12;fontStyle=0;aspect=fixed;shape=mxgraph.aws4.resourceIcon;resIcon=mxgraph.aws4.connect;" parent="8itjGVCMwVhG1kfjSsnW-1" vertex="1">
          <mxGeometry x="80" y="80" width="40" height="40" as="geometry" />
        </mxCell>
        <mxCell id="6MaKEtEqFqhA6RrxHM5q-81" value="" style="edgeStyle=orthogonalEdgeStyle;rounded=0;orthogonalLoop=1;jettySize=auto;html=1;fontSize=8;startArrow=none;startFill=0;endArrow=classic;endFill=1;exitX=0.5;exitY=0;exitDx=0;exitDy=0;exitPerimeter=0;" edge="1" parent="8itjGVCMwVhG1kfjSsnW-1" source="8itjGVCMwVhG1kfjSsnW-8" target="6MaKEtEqFqhA6RrxHM5q-80">
          <mxGeometry relative="1" as="geometry" />
        </mxCell>
        <mxCell id="6MaKEtEqFqhA6RrxHM5q-120" value="" style="edgeStyle=orthogonalEdgeStyle;rounded=0;orthogonalLoop=1;jettySize=auto;html=1;fontSize=8;startArrow=none;startFill=0;endArrow=classic;endFill=1;" edge="1" parent="8itjGVCMwVhG1kfjSsnW-1" source="8itjGVCMwVhG1kfjSsnW-9">
          <mxGeometry relative="1" as="geometry">
            <mxPoint x="360" y="100" as="targetPoint" />
          </mxGeometry>
        </mxCell>
        <mxCell id="8itjGVCMwVhG1kfjSsnW-9" value="Connect Flows" style="shape=image;verticalLabelPosition=bottom;labelBackgroundColor=default;verticalAlign=top;aspect=fixed;imageAspect=0;image=data:image/png,iVBORw0KGgoAAAANSUhEUgAAAGMAAABXCAYAAAAQ0PsuAAAAAXNSR0IArs4c6QAAAARnQU1BAACxjwv8YQUAAAAJcEhZcwAAFiUAABYlAUlSJPAAAAtDSURBVHhe7Z17VJRlHse/M8wAAygII3JTAhTFzFJzrcxys9RAs84WHUXz1kXdVdPS6KptWJruuqaWZ1tLbF3L1NXjrpm6mdrdLfMWFwExELkNzAAzMMNc9nneecaZEQRm4Mz7vuz7+Wd4f3oOM3zm+f1+z+WdkVVV19ogIQjk7FFCAEgyBIQkQ0BIMgSEJMNLLBYL8k+eQqOhkUU6jyTDC6xWKy5u2IOqmVuQu3I7mhq7Rogkw0NsNhvy/rQLmk2HAFMz9Du/Rs5r2V0yQiQZHlKaV4h6IgAmM3ctI7M0/SffImfFtk4LkWR4SNzAJIS9kQ55WDCLECFWGxp3fd9pIZIMD5HJZOj/4GiEr54KRXgPFiVYrHYhr33otRBJhhfI5XIMSL0boVmPwS/CXYiBCMldke1VUZdkeAkVkjzpHoRlpbsJoSlL//E3yFn5kccjRJLRCTghaWPsQlxSFlfUd3yN3Ky/w9CgZ9H2kWR0EoeQXquuK+ogI2T7V8hbvRP6hgYWbRtJRhfA1RAiJGLNNMhDg1iUCdl2EvmrP+6QEElGF+Eo6r3XzYA8JJBF3YW0l7IkGV0IbXuTJt6FPhtmQxboTzSwOBOS99ZOGPQGFm2JJKOLoUISJ9yJ6M1zIQ9QsCgTkk1GCCnqN2p7u822axNpI3OPf4+gCxVQGKy49rbkkbofcqH/uYgaYhH6tGQInnonBr0+E6ogFYva6RYyLp/4CeUv7YC5RAOYLW4vXojY5DL0XDwRQ5+byiJ2RJ+mSr47i7Kn3oO5uIqbAQtdBIVODCtOnGFXTkQtQ6upQeXyHbDqjSwiDmzk/RI56mZ25US0acpsNiN3xXbosr9kETu2UQloiAthV/wScboKxsKrXFG/Bvk55KGRSFw1Az3CQlnQjmhl5B7+BrUL/gZrk31fgeI3LgUp6+chNLwXi/BH/vEfULMwG2ZNvTNzMhEJb2SgZyvPUZRpqrLsKvRr/uUmQqHuiX4vpvMugu4E5p/8L2o9FEERnQyT0Yir7xxAU14pixBIdxL47HhED0xkAX64JuIP22CuuU7E5LZFUEQnI+/It9B/+gO7shMw9makTJ1AXrNLbvYxDhHaRXRE1LEogYpIux2Jb85oUwRFVDLKfy2Fae1nsBlNLELqRFgw4sk7zj8ggEV8j13EKegWb4e52kUEmeD1ICL6vz2rRbFuDdHIaDaZULaBpCfSnVzDTw7V8jT0jo9lAd/jGBG6xR+huUrHohQysXtwBAasm4Pgni67gW0gGhkXPjsB475T7IpA/gghYwbjlumpLMAPF7/6kUtNriLIU0PoA8OQ/M7TUIU49zjaQxQyaHpqfvsQrEaX7ikyFDGrpnFL13xB29fa33/YIjWFPTAcyVvmI0DlXErvCIKX0dzcjJI1u2G8XMEiBKUfgl6YTNJTHAv4nrxj36OGjgjSvjqRIZSmpvfmeVXDBC+jaO8RNB86S16mvVOiKSBk/G1IeXQcd80Hece+Q+2Sj8iIcG9fe6SNQNL6uR6PCAeCllFVdBm69UdI9+RMTwHxavR54WEoFM69Al9SVlCM2uU7Ya6qcxcx6XYkrZ3tUY24HsHKoN1T6epdMF2pYRHymgOUUD07EVGJ8SzieyL6RsMyeQjk/n72AJ1H0AndW090uGu6EYKVUfzpFzAczYGM5iUCfVBNIoVxyr3cNV8EkFowYtl0WOeMhpy8ObgljqyMDs0j2kOQC4WVRb+iMH0drOVaFgEC+/dGzNaFiE66iUX4pdFgQOHn36HfvcPanVl3FMGNDNo9Vb6xC5artSxiT0/Bi1MFI4KiCgrCkEfu6zIRFMHJKN51DNqjpHtyVEeSn4Ifvg0JD462X3djBCWj4lIJNKv3c8cjHcj790HUokcQEOhduygm3GrGqbXvQ+mSp30JnUdYf9HBcO4yixD8FQjfOBMpafwWbV/hJuPg2EUILeBHxvXQ7kmW8RuMzHoa/v7+LNp9qdXqhNvaypR+GPjk5P8LEZTCS8XClUHPP+Vu/ieMRnGd/PCWvrEx7mnq0Eb3pWBfIic1I+6MBg0/FrEIwU+OyL/MwIBH+FuH8iWCmvRpyspRkJbFrfs4UN6kRt/tixHN4xKIrxBUmoqIiYL6lce4448OTJeqofnzHjSRGW93R3A1I37KaISlDiPdlH3A0rmf7uB5FO0/yV13ZwQngy6NR72cDkWcmkUIJjPqNx3mbogXCvoGPc7u+DdqK6tZpPMIsptS941B+LKHIHO5v6G5uArV6w9wR//5hor4adU2NLy6B8UvZ3eZEMG2tglT7kZA6i3cIWEKTVeGI2eRv/sLe4An6GotFeG38xRsZMQaPj+D4peyoa3SsP/hPYKVoVQqEb88HcqESBYhs3KjGU2bjqI0t4BFfI+2ohr+xwthbbbaA+SBE5L5IXQa50aYNwhWBkXdNxbKJeMhUzln4aYrGlSt2ccd8+SD6IR+CF83HYrYXtySDQd51B8+i+LnP0B9rffLSYKWQRk6+T74T77t2l1hXLo6dgE5Ow+ziO8ZcNdwqDfMgiLGXUjD0bMoWvI+9HWuJ0Y6juBl0O6q33O/Q2BiNIsQzBY0rj+E8gKXFV4f0//OYVBvnAVldFhLIQve9arRELwMSmRsNPwzUyEPcKYrS3Udyl/ZwX0qGl/0v4MI2TwXyqgwFqHIUPfleVx8agMa27jNuDVEIYMyePxoqB6/g10RSL5q+DoXZ7buZwF+SBp1K9RbnoQiynX7lQg5fgEFz2z0KGWJRgZNV7ELJ0E1yHmKkO4INq07iIqCYhbhh6SRQxHx7hySssJZhGIfIQWLtnS4qItGBqV3dBQCMtPcuit6c2UpSVfGJn6X2m8kpOE/51C09P0Otb1+y5dnrmQ/i4KwuCjUaXUwnb7EIqSel2hQG+qHPsMHkuzlXGT0JfT39oqJhHFYLJqO58Da0MT+hS52VkJfVIbAuwYiMNj5QS/XI6qRQaE7fzHzUxE0pB+LEEi6Mm08givnL7IAP1AhdISo35sLRR/3LovOQy69uK3NpRPRyaCooyIRnPmQW7qyaPUoXbULNZVVLMIfnJB3WZflMEIeDIfp0smNhQjyRGFHoPeB5735D2j/epRF6OuVwTY0FvXRKvIT/6hztDBernRPneTtHzzhViS8NRuhatf6ImIZFB3pUgofX4vGX0pYRBzYiJCgOWMxfOUcFrEjyjTlILRXGCJXZ3A3WYoJGZmnan5uWd9ELYMSN3wwYrcugN+QOG7/g6YqwaOQo8/9I9iFE1GnKVfoKm7+Nz9BmV8JpcHiLJw8ISe/XnvsHPSnC2mbxaIEPzmCZ45ByksZLY6sdhsZQqPowFe4uvgDbsvYlZC5v8WgF6e2enZY9GlKaNCDFIX7T+Dqwq0tRPR4ZhwZEdNueIhbktGF0BXkgn3HUbE0m1vmdyVk3jgkP5/e5l2wkowugvuCk71fovqFHbAZm1nUTsi8+5G89DEEqtw/k/B6JBldAP3Kn7y9X6Dm1U9gNbgvWPaYT0U8yt3p1B6SjE7CffcSEaFdsRvWevfdvRBSI+iI6IgIiiSjE3AjYg8RsXIPrDrnrh49XhTyJOmalj3ebmpyRZLhJQ4Ruj/udRNB5xEhs8diUGbr7WtbSDK8gBZrKqLudTIitC6fb05m1vYJ3Y3b17aQZHgIJ4LUiLqVu2FxHRFERNCM1mfWHUWS4SFlFy+h7s19sNS5FOtrIrwbEQ4kGR4Sm5yIsLn3c98CwEFqRNATYzD45QyPinVrSDI8hG4UJS+Ygoglk7idxuBZ92BwJ1KTK9JCoZfQNajiH88jZsiALhFBkWQICClNCQhJhoCQZAgISYZgAP4HFFFN+UoAZkoAAAAASUVORK5CYII=;fontSize=10;" parent="8itjGVCMwVhG1kfjSsnW-1" vertex="1">
          <mxGeometry x="249" y="86.5" width="31" height="27" as="geometry" />
        </mxCell>
        <mxCell id="6MaKEtEqFqhA6RrxHM5q-2" value="&lt;font style=&quot;font-size: 10px&quot;&gt;VPC&lt;/font&gt;" style="points=[[0,0],[0.25,0],[0.5,0],[0.75,0],[1,0],[1,0.25],[1,0.5],[1,0.75],[1,1],[0.75,1],[0.5,1],[0.25,1],[0,1],[0,0.75],[0,0.5],[0,0.25]];outlineConnect=0;gradientColor=none;html=1;whiteSpace=wrap;fontSize=12;fontStyle=0;container=1;pointerEvents=0;collapsible=0;recursiveResize=0;shape=mxgraph.aws4.group;grIcon=mxgraph.aws4.group_vpc;strokeColor=#248814;fillColor=none;verticalAlign=top;align=left;spacingLeft=30;fontColor=#AAB7B8;dashed=0;" vertex="1" parent="8itjGVCMwVhG1kfjSsnW-1">
          <mxGeometry x="30" y="420" width="550" height="200" as="geometry" />
        </mxCell>
        <mxCell id="6MaKEtEqFqhA6RrxHM5q-124" value="&lt;b&gt;FIL Services on AWS&lt;/b&gt;" style="text;html=1;align=center;verticalAlign=middle;resizable=0;points=[];autosize=1;strokeColor=none;fillColor=none;fontSize=10;" vertex="1" parent="6MaKEtEqFqhA6RrxHM5q-2">
          <mxGeometry x="95" width="110" height="20" as="geometry" />
        </mxCell>
        <mxCell id="6MaKEtEqFqhA6RrxHM5q-7" value="&lt;font style=&quot;font-size: 10px&quot;&gt;Private subnet&lt;/font&gt;" style="points=[[0,0],[0.25,0],[0.5,0],[0.75,0],[1,0],[1,0.25],[1,0.5],[1,0.75],[1,1],[0.75,1],[0.5,1],[0.25,1],[0,1],[0,0.75],[0,0.5],[0,0.25]];outlineConnect=0;gradientColor=none;html=1;whiteSpace=wrap;fontSize=12;fontStyle=0;container=1;pointerEvents=0;collapsible=0;recursiveResize=0;shape=mxgraph.aws4.group;grIcon=mxgraph.aws4.group_security_group;grStroke=0;strokeColor=#147EBA;fillColor=#E6F2F8;verticalAlign=top;align=left;spacingLeft=30;fontColor=#147EBA;dashed=0;" vertex="1" parent="8itjGVCMwVhG1kfjSsnW-1">
          <mxGeometry x="60" y="440" width="500" height="180" as="geometry" />
        </mxCell>
        <mxCell id="6MaKEtEqFqhA6RrxHM5q-15" style="edgeStyle=orthogonalEdgeStyle;rounded=0;orthogonalLoop=1;jettySize=auto;html=1;exitX=0.5;exitY=0;exitDx=0;exitDy=0;exitPerimeter=0;entryX=0.5;entryY=0;entryDx=0;entryDy=0;entryPerimeter=0;fontSize=10;startArrow=classic;startFill=1;" edge="1" parent="6MaKEtEqFqhA6RrxHM5q-7" source="6MaKEtEqFqhA6RrxHM5q-4" target="6MaKEtEqFqhA6RrxHM5q-10">
          <mxGeometry relative="1" as="geometry">
            <Array as="points">
              <mxPoint x="157" y="110" />
              <mxPoint x="272" y="110" />
              <mxPoint x="272" y="119" />
            </Array>
          </mxGeometry>
        </mxCell>
        <mxCell id="6MaKEtEqFqhA6RrxHM5q-4" value="&lt;font style=&quot;font-size: 8px&quot;&gt;EC2 Instance&lt;/font&gt;" style="sketch=0;points=[[0,0,0],[0.25,0,0],[0.5,0,0],[0.75,0,0],[1,0,0],[0,1,0],[0.25,1,0],[0.5,1,0],[0.75,1,0],[1,1,0],[0,0.25,0],[0,0.5,0],[0,0.75,0],[1,0.25,0],[1,0.5,0],[1,0.75,0]];outlineConnect=0;fontColor=#232F3E;gradientColor=#F78E04;gradientDirection=north;fillColor=#D05C17;strokeColor=#ffffff;dashed=0;verticalLabelPosition=bottom;verticalAlign=top;align=center;html=1;fontSize=12;fontStyle=0;aspect=fixed;shape=mxgraph.aws4.resourceIcon;resIcon=mxgraph.aws4.ec2;" vertex="1" parent="6MaKEtEqFqhA6RrxHM5q-7">
          <mxGeometry x="140" y="120" width="35" height="35" as="geometry" />
        </mxCell>
        <mxCell id="6MaKEtEqFqhA6RrxHM5q-10" value="&lt;font style=&quot;font-size: 8px&quot;&gt;EC2 Instance&lt;/font&gt;" style="sketch=0;points=[[0,0,0],[0.25,0,0],[0.5,0,0],[0.75,0,0],[1,0,0],[0,1,0],[0.25,1,0],[0.5,1,0],[0.75,1,0],[1,1,0],[0,0.25,0],[0,0.5,0],[0,0.75,0],[1,0.25,0],[1,0.5,0],[1,0.75,0]];outlineConnect=0;fontColor=#232F3E;gradientColor=#F78E04;gradientDirection=north;fillColor=#D05C17;strokeColor=#ffffff;dashed=0;verticalLabelPosition=bottom;verticalAlign=top;align=center;html=1;fontSize=12;fontStyle=0;aspect=fixed;shape=mxgraph.aws4.resourceIcon;resIcon=mxgraph.aws4.ec2;" vertex="1" parent="6MaKEtEqFqhA6RrxHM5q-7">
          <mxGeometry x="254" y="119" width="35" height="35" as="geometry" />
        </mxCell>
        <mxCell id="6MaKEtEqFqhA6RrxHM5q-42" value="" style="edgeStyle=none;rounded=0;orthogonalLoop=1;jettySize=auto;html=1;fontSize=8;startArrow=none;startFill=0;endArrow=classic;endFill=1;" edge="1" parent="6MaKEtEqFqhA6RrxHM5q-7" source="6MaKEtEqFqhA6RrxHM5q-11">
          <mxGeometry relative="1" as="geometry">
            <mxPoint x="215" y="110" as="targetPoint" />
          </mxGeometry>
        </mxCell>
        <mxCell id="6MaKEtEqFqhA6RrxHM5q-11" value="" style="sketch=0;points=[[0,0,0],[0.25,0,0],[0.5,0,0],[0.75,0,0],[1,0,0],[0,1,0],[0.25,1,0],[0.5,1,0],[0.75,1,0],[1,1,0],[0,0.25,0],[0,0.5,0],[0,0.75,0],[1,0.25,0],[1,0.5,0],[1,0.75,0]];outlineConnect=0;fontColor=#232F3E;gradientColor=#F78E04;gradientDirection=north;fillColor=#D05C17;strokeColor=#ffffff;dashed=0;verticalLabelPosition=bottom;verticalAlign=top;align=center;html=1;fontSize=12;fontStyle=0;aspect=fixed;shape=mxgraph.aws4.resourceIcon;resIcon=mxgraph.aws4.ecs;" vertex="1" parent="6MaKEtEqFqhA6RrxHM5q-7">
          <mxGeometry x="200" y="62" width="30" height="30" as="geometry" />
        </mxCell>
        <mxCell id="6MaKEtEqFqhA6RrxHM5q-41" value="" style="edgeStyle=none;rounded=0;orthogonalLoop=1;jettySize=auto;html=1;fontSize=8;startArrow=none;startFill=0;endArrow=classic;endFill=1;" edge="1" parent="6MaKEtEqFqhA6RrxHM5q-7" source="6MaKEtEqFqhA6RrxHM5q-19" target="6MaKEtEqFqhA6RrxHM5q-11">
          <mxGeometry relative="1" as="geometry" />
        </mxCell>
        <mxCell id="6MaKEtEqFqhA6RrxHM5q-19" value="&lt;font style=&quot;font-size: 8px&quot;&gt;Network Load Balancer&lt;/font&gt;" style="sketch=0;outlineConnect=0;fontColor=#232F3E;gradientColor=none;fillColor=#4D27AA;strokeColor=none;dashed=0;verticalLabelPosition=bottom;verticalAlign=top;align=center;html=1;fontSize=12;fontStyle=0;aspect=fixed;pointerEvents=1;shape=mxgraph.aws4.network_load_balancer;" vertex="1" parent="6MaKEtEqFqhA6RrxHM5q-7">
          <mxGeometry x="200.5" y="10" width="30" height="30" as="geometry" />
        </mxCell>
        <mxCell id="6MaKEtEqFqhA6RrxHM5q-48" value="" style="edgeStyle=none;rounded=0;orthogonalLoop=1;jettySize=auto;html=1;fontSize=8;startArrow=classic;startFill=1;endArrow=classic;endFill=1;" edge="1" parent="8itjGVCMwVhG1kfjSsnW-1" source="6MaKEtEqFqhA6RrxHM5q-22" target="6MaKEtEqFqhA6RrxHM5q-19">
          <mxGeometry relative="1" as="geometry" />
        </mxCell>
        <mxCell id="6MaKEtEqFqhA6RrxHM5q-22" value="&lt;font&gt;&lt;span style=&quot;font-size: 10px&quot;&gt;Amazon MQ&lt;/span&gt;&lt;br&gt;&lt;font style=&quot;font-size: 8px&quot;&gt;&lt;i&gt;RabbitMQ&lt;/i&gt;&lt;/font&gt;&lt;/font&gt;" style="sketch=0;points=[[0,0,0],[0.25,0,0],[0.5,0,0],[0.75,0,0],[1,0,0],[0,1,0],[0.25,1,0],[0.5,1,0],[0.75,1,0],[1,1,0],[0,0.25,0],[0,0.5,0],[0,0.75,0],[1,0.25,0],[1,0.5,0],[1,0.75,0]];outlineConnect=0;fontColor=#232F3E;gradientColor=#FF4F8B;gradientDirection=north;fillColor=#BC1356;strokeColor=#ffffff;dashed=0;verticalLabelPosition=bottom;verticalAlign=top;align=center;html=1;fontSize=12;fontStyle=0;aspect=fixed;shape=mxgraph.aws4.resourceIcon;resIcon=mxgraph.aws4.mq;" vertex="1" parent="8itjGVCMwVhG1kfjSsnW-1">
          <mxGeometry x="160" y="320" width="40" height="40" as="geometry" />
        </mxCell>
        <mxCell id="6MaKEtEqFqhA6RrxHM5q-70" value="" style="edgeStyle=none;rounded=0;orthogonalLoop=1;jettySize=auto;html=1;fontSize=8;startArrow=classic;startFill=1;endArrow=none;endFill=0;" edge="1" parent="8itjGVCMwVhG1kfjSsnW-1">
          <mxGeometry relative="1" as="geometry">
            <mxPoint x="380" y="241" as="sourcePoint" />
            <mxPoint x="380" y="176" as="targetPoint" />
          </mxGeometry>
        </mxCell>
        <mxCell id="6MaKEtEqFqhA6RrxHM5q-23" value="&lt;font style=&quot;font-size: 10px&quot;&gt;API Gateway&lt;/font&gt;" style="sketch=0;points=[[0,0,0],[0.25,0,0],[0.5,0,0],[0.75,0,0],[1,0,0],[0,1,0],[0.25,1,0],[0.5,1,0],[0.75,1,0],[1,1,0],[0,0.25,0],[0,0.5,0],[0,0.75,0],[1,0.25,0],[1,0.5,0],[1,0.75,0]];outlineConnect=0;fontColor=#232F3E;gradientColor=#FF4F8B;gradientDirection=north;fillColor=#BC1356;strokeColor=#ffffff;dashed=0;verticalLabelPosition=bottom;verticalAlign=top;align=center;html=1;fontSize=12;fontStyle=0;aspect=fixed;shape=mxgraph.aws4.resourceIcon;resIcon=mxgraph.aws4.api_gateway;" vertex="1" parent="8itjGVCMwVhG1kfjSsnW-1">
          <mxGeometry x="360" y="245" width="40" height="40" as="geometry" />
        </mxCell>
        <mxCell id="6MaKEtEqFqhA6RrxHM5q-28" value="" style="rounded=0;orthogonalLoop=1;jettySize=auto;html=1;fontSize=8;startArrow=none;startFill=0;endArrow=classic;endFill=1;" edge="1" parent="8itjGVCMwVhG1kfjSsnW-1" source="6MaKEtEqFqhA6RrxHM5q-24" target="6MaKEtEqFqhA6RrxHM5q-25">
          <mxGeometry relative="1" as="geometry">
            <Array as="points">
              <mxPoint x="99" y="320" />
            </Array>
          </mxGeometry>
        </mxCell>
        <mxCell id="6MaKEtEqFqhA6RrxHM5q-37" value="SkillStats" style="edgeStyle=none;rounded=0;orthogonalLoop=1;jettySize=auto;html=1;fontSize=8;startArrow=classic;startFill=1;endArrow=classic;endFill=1;" edge="1" parent="8itjGVCMwVhG1kfjSsnW-1" source="8itjGVCMwVhG1kfjSsnW-8" target="6MaKEtEqFqhA6RrxHM5q-26">
          <mxGeometry x="0.152" y="4" relative="1" as="geometry">
            <Array as="points">
              <mxPoint x="140" y="180" />
            </Array>
            <mxPoint as="offset" />
          </mxGeometry>
        </mxCell>
        <mxCell id="6MaKEtEqFqhA6RrxHM5q-24" value="&lt;div&gt;&lt;span style=&quot;font-size: 10px&quot;&gt;EventBridge&lt;/span&gt;&lt;/div&gt;" style="sketch=0;points=[[0,0,0],[0.25,0,0],[0.5,0,0],[0.75,0,0],[1,0,0],[0,1,0],[0.25,1,0],[0.5,1,0],[0.75,1,0],[1,1,0],[0,0.25,0],[0,0.5,0],[0,0.75,0],[1,0.25,0],[1,0.5,0],[1,0.75,0]];outlineConnect=0;fontColor=#232F3E;gradientColor=#FF4F8B;gradientDirection=north;fillColor=#BC1356;strokeColor=#ffffff;dashed=0;verticalLabelPosition=bottom;verticalAlign=top;align=center;html=1;fontSize=12;fontStyle=0;aspect=fixed;shape=mxgraph.aws4.resourceIcon;resIcon=mxgraph.aws4.eventbridge;" vertex="1" parent="8itjGVCMwVhG1kfjSsnW-1">
          <mxGeometry x="80" y="245" width="38" height="38" as="geometry" />
        </mxCell>
        <mxCell id="6MaKEtEqFqhA6RrxHM5q-33" value="Pub" style="edgeStyle=none;rounded=0;orthogonalLoop=1;jettySize=auto;html=1;fontSize=8;startArrow=none;startFill=0;endArrow=classic;endFill=1;" edge="1" parent="8itjGVCMwVhG1kfjSsnW-1" source="6MaKEtEqFqhA6RrxHM5q-25" target="6MaKEtEqFqhA6RrxHM5q-22">
          <mxGeometry relative="1" as="geometry" />
        </mxCell>
        <mxCell id="6MaKEtEqFqhA6RrxHM5q-25" value="&lt;i&gt;PushCallEvents&lt;/i&gt;" style="outlineConnect=0;dashed=0;verticalLabelPosition=bottom;verticalAlign=top;align=center;html=1;shape=mxgraph.aws3.lambda_function;fillColor=#F58534;gradientColor=none;fontSize=8;" vertex="1" parent="8itjGVCMwVhG1kfjSsnW-1">
          <mxGeometry x="82" y="325" width="30" height="30" as="geometry" />
        </mxCell>
        <mxCell id="6MaKEtEqFqhA6RrxHM5q-36" value="Pub" style="edgeStyle=none;rounded=0;orthogonalLoop=1;jettySize=auto;html=1;fontSize=8;startArrow=none;startFill=0;endArrow=classic;endFill=1;" edge="1" parent="8itjGVCMwVhG1kfjSsnW-1" source="6MaKEtEqFqhA6RrxHM5q-26" target="6MaKEtEqFqhA6RrxHM5q-22">
          <mxGeometry relative="1" as="geometry" />
        </mxCell>
        <mxCell id="6MaKEtEqFqhA6RrxHM5q-26" value="&lt;i&gt;PullSkillStats&lt;/i&gt;" style="outlineConnect=0;dashed=0;verticalLabelPosition=bottom;verticalAlign=top;align=center;html=1;shape=mxgraph.aws3.lambda_function;fillColor=#F58534;gradientColor=none;fontSize=8;" vertex="1" parent="8itjGVCMwVhG1kfjSsnW-1">
          <mxGeometry x="165" y="245" width="30" height="30" as="geometry" />
        </mxCell>
        <mxCell id="6MaKEtEqFqhA6RrxHM5q-62" value="" style="edgeStyle=orthogonalEdgeStyle;rounded=0;orthogonalLoop=1;jettySize=auto;html=1;fontSize=8;startArrow=classic;startFill=1;endArrow=none;endFill=0;" edge="1" parent="8itjGVCMwVhG1kfjSsnW-1" source="6MaKEtEqFqhA6RrxHM5q-27">
          <mxGeometry relative="1" as="geometry">
            <mxPoint x="361" y="310" as="targetPoint" />
            <Array as="points">
              <mxPoint x="361" y="305" />
            </Array>
          </mxGeometry>
        </mxCell>
        <mxCell id="6MaKEtEqFqhA6RrxHM5q-73" value="" style="rounded=0;orthogonalLoop=1;jettySize=auto;html=1;fontSize=8;startArrow=classic;startFill=1;endArrow=classic;endFill=1;" edge="1" parent="8itjGVCMwVhG1kfjSsnW-1" source="6MaKEtEqFqhA6RrxHM5q-27" target="6MaKEtEqFqhA6RrxHM5q-19">
          <mxGeometry relative="1" as="geometry" />
        </mxCell>
        <mxCell id="6MaKEtEqFqhA6RrxHM5q-27" value="&lt;i&gt;RegisterCallBack&lt;/i&gt;" style="outlineConnect=0;dashed=0;verticalLabelPosition=bottom;verticalAlign=top;align=center;html=1;shape=mxgraph.aws3.lambda_function;fillColor=#F58534;gradientColor=none;fontSize=8;" vertex="1" parent="8itjGVCMwVhG1kfjSsnW-1">
          <mxGeometry x="345.5" y="325" width="30" height="30" as="geometry" />
        </mxCell>
        <mxCell id="6MaKEtEqFqhA6RrxHM5q-61" style="edgeStyle=orthogonalEdgeStyle;rounded=0;orthogonalLoop=1;jettySize=auto;html=1;fontSize=8;startArrow=classic;startFill=1;endArrow=classic;endFill=1;exitX=0.5;exitY=0;exitDx=0;exitDy=0;exitPerimeter=0;" edge="1" parent="8itjGVCMwVhG1kfjSsnW-1" source="6MaKEtEqFqhA6RrxHM5q-46" target="6MaKEtEqFqhA6RrxHM5q-50">
          <mxGeometry relative="1" as="geometry">
            <mxPoint x="295.02857142857147" y="329" as="sourcePoint" />
            <mxPoint x="475" y="329" as="targetPoint" />
            <Array as="points">
              <mxPoint x="295" y="304" />
              <mxPoint x="475" y="304" />
            </Array>
          </mxGeometry>
        </mxCell>
        <mxCell id="6MaKEtEqFqhA6RrxHM5q-76" value="" style="rounded=0;orthogonalLoop=1;jettySize=auto;html=1;fontSize=8;startArrow=classic;startFill=1;endArrow=classic;endFill=1;" edge="1" parent="8itjGVCMwVhG1kfjSsnW-1" source="6MaKEtEqFqhA6RrxHM5q-46" target="6MaKEtEqFqhA6RrxHM5q-19">
          <mxGeometry relative="1" as="geometry" />
        </mxCell>
        <mxCell id="6MaKEtEqFqhA6RrxHM5q-46" value="&lt;i&gt;OfferCallBack&lt;/i&gt;" style="outlineConnect=0;dashed=0;verticalLabelPosition=bottom;verticalAlign=top;align=center;html=1;shape=mxgraph.aws3.lambda_function;fillColor=#F58534;gradientColor=none;fontSize=8;" vertex="1" parent="8itjGVCMwVhG1kfjSsnW-1">
          <mxGeometry x="280" y="325" width="30" height="30" as="geometry" />
        </mxCell>
        <mxCell id="6MaKEtEqFqhA6RrxHM5q-74" value="" style="edgeStyle=none;rounded=0;orthogonalLoop=1;jettySize=auto;html=1;fontSize=8;startArrow=classic;startFill=1;endArrow=classic;endFill=1;" edge="1" parent="8itjGVCMwVhG1kfjSsnW-1" source="6MaKEtEqFqhA6RrxHM5q-47">
          <mxGeometry relative="1" as="geometry">
            <mxPoint x="290" y="450" as="targetPoint" />
          </mxGeometry>
        </mxCell>
        <mxCell id="6MaKEtEqFqhA6RrxHM5q-47" value="&lt;i&gt;PredictEwt&lt;/i&gt;" style="outlineConnect=0;dashed=0;verticalLabelPosition=bottom;verticalAlign=top;align=center;html=1;shape=mxgraph.aws3.lambda_function;fillColor=#F58534;gradientColor=none;fontSize=8;" vertex="1" parent="8itjGVCMwVhG1kfjSsnW-1">
          <mxGeometry x="408" y="326" width="30" height="30" as="geometry" />
        </mxCell>
        <mxCell id="6MaKEtEqFqhA6RrxHM5q-75" value="" style="edgeStyle=none;rounded=0;orthogonalLoop=1;jettySize=auto;html=1;fontSize=8;startArrow=classic;startFill=1;endArrow=classic;endFill=1;" edge="1" parent="8itjGVCMwVhG1kfjSsnW-1" source="6MaKEtEqFqhA6RrxHM5q-50" target="6MaKEtEqFqhA6RrxHM5q-19">
          <mxGeometry relative="1" as="geometry">
            <Array as="points" />
          </mxGeometry>
        </mxCell>
        <mxCell id="6MaKEtEqFqhA6RrxHM5q-50" value="&lt;i&gt;DialContact&lt;/i&gt;" style="outlineConnect=0;dashed=0;verticalLabelPosition=bottom;verticalAlign=top;align=center;html=1;shape=mxgraph.aws3.lambda_function;fillColor=#F58534;gradientColor=none;fontSize=8;" vertex="1" parent="8itjGVCMwVhG1kfjSsnW-1">
          <mxGeometry x="460" y="326" width="30" height="30" as="geometry" />
        </mxCell>
        <mxCell id="6MaKEtEqFqhA6RrxHM5q-63" value="" style="edgeStyle=orthogonalEdgeStyle;rounded=0;orthogonalLoop=1;jettySize=auto;html=1;fontSize=8;startArrow=classic;startFill=1;endArrow=none;endFill=0;" edge="1" parent="8itjGVCMwVhG1kfjSsnW-1">
          <mxGeometry relative="1" as="geometry">
            <mxPoint x="379.73857142857145" y="305" as="sourcePoint" />
            <mxPoint x="379.71" y="290" as="targetPoint" />
            <Array as="points">
              <mxPoint x="379.71" y="285" />
            </Array>
          </mxGeometry>
        </mxCell>
        <mxCell id="6MaKEtEqFqhA6RrxHM5q-69" value="" style="edgeStyle=none;rounded=0;orthogonalLoop=1;jettySize=auto;html=1;fontSize=8;startArrow=classic;startFill=1;endArrow=none;endFill=0;" edge="1" parent="8itjGVCMwVhG1kfjSsnW-1" source="6MaKEtEqFqhA6RrxHM5q-67">
          <mxGeometry relative="1" as="geometry">
            <mxPoint x="380" y="175" as="targetPoint" />
          </mxGeometry>
        </mxCell>
        <mxCell id="6MaKEtEqFqhA6RrxHM5q-71" value="" style="edgeStyle=none;rounded=0;orthogonalLoop=1;jettySize=auto;html=1;fontSize=8;startArrow=classic;startFill=1;endArrow=classic;endFill=1;" edge="1" parent="8itjGVCMwVhG1kfjSsnW-1" source="6MaKEtEqFqhA6RrxHM5q-67" target="8itjGVCMwVhG1kfjSsnW-9">
          <mxGeometry relative="1" as="geometry" />
        </mxCell>
        <mxCell id="6MaKEtEqFqhA6RrxHM5q-67" value="&lt;i&gt;FilService&lt;/i&gt;" style="outlineConnect=0;dashed=0;verticalLabelPosition=bottom;verticalAlign=top;align=center;html=1;shape=mxgraph.aws3.lambda_function;fillColor=#F58534;gradientColor=none;fontSize=8;" vertex="1" parent="8itjGVCMwVhG1kfjSsnW-1">
          <mxGeometry x="249" y="160" width="30" height="30" as="geometry" />
        </mxCell>
        <mxCell id="6MaKEtEqFqhA6RrxHM5q-83" value="" style="edgeStyle=none;rounded=0;orthogonalLoop=1;jettySize=auto;html=1;fontSize=8;startArrow=none;startFill=0;endArrow=classic;endFill=1;" edge="1" parent="8itjGVCMwVhG1kfjSsnW-1" source="6MaKEtEqFqhA6RrxHM5q-77" target="6MaKEtEqFqhA6RrxHM5q-78">
          <mxGeometry relative="1" as="geometry" />
        </mxCell>
        <mxCell id="6MaKEtEqFqhA6RrxHM5q-77" value="S3" style="sketch=0;points=[[0,0,0],[0.25,0,0],[0.5,0,0],[0.75,0,0],[1,0,0],[0,1,0],[0.25,1,0],[0.5,1,0],[0.75,1,0],[1,1,0],[0,0.25,0],[0,0.5,0],[0,0.75,0],[1,0.25,0],[1,0.5,0],[1,0.75,0]];outlineConnect=0;fontColor=#232F3E;gradientColor=#60A337;gradientDirection=north;fillColor=#277116;strokeColor=#ffffff;dashed=0;verticalLabelPosition=bottom;verticalAlign=top;align=center;html=1;fontSize=12;fontStyle=0;aspect=fixed;shape=mxgraph.aws4.resourceIcon;resIcon=mxgraph.aws4.s3;" vertex="1" parent="8itjGVCMwVhG1kfjSsnW-1">
          <mxGeometry x="665" y="70" width="50" height="50" as="geometry" />
        </mxCell>
        <mxCell id="6MaKEtEqFqhA6RrxHM5q-84" value="" style="edgeStyle=none;rounded=0;orthogonalLoop=1;jettySize=auto;html=1;fontSize=8;startArrow=none;startFill=0;endArrow=classic;endFill=1;" edge="1" parent="8itjGVCMwVhG1kfjSsnW-1" source="6MaKEtEqFqhA6RrxHM5q-78" target="6MaKEtEqFqhA6RrxHM5q-79">
          <mxGeometry relative="1" as="geometry" />
        </mxCell>
        <mxCell id="6MaKEtEqFqhA6RrxHM5q-78" value="RedShift" style="sketch=0;points=[[0,0,0],[0.25,0,0],[0.5,0,0],[0.75,0,0],[1,0,0],[0,1,0],[0.25,1,0],[0.5,1,0],[0.75,1,0],[1,1,0],[0,0.25,0],[0,0.5,0],[0,0.75,0],[1,0.25,0],[1,0.5,0],[1,0.75,0]];outlineConnect=0;fontColor=#232F3E;gradientColor=#945DF2;gradientDirection=north;fillColor=#5A30B5;strokeColor=#ffffff;dashed=0;verticalLabelPosition=bottom;verticalAlign=top;align=center;html=1;fontSize=12;fontStyle=0;aspect=fixed;shape=mxgraph.aws4.resourceIcon;resIcon=mxgraph.aws4.redshift;" vertex="1" parent="8itjGVCMwVhG1kfjSsnW-1">
          <mxGeometry x="662" y="197" width="53" height="53" as="geometry" />
        </mxCell>
        <mxCell id="6MaKEtEqFqhA6RrxHM5q-79" value="QuickSight" style="sketch=0;points=[[0,0,0],[0.25,0,0],[0.5,0,0],[0.75,0,0],[1,0,0],[0,1,0],[0.25,1,0],[0.5,1,0],[0.75,1,0],[1,1,0],[0,0.25,0],[0,0.5,0],[0,0.75,0],[1,0.25,0],[1,0.5,0],[1,0.75,0]];outlineConnect=0;fontColor=#232F3E;gradientColor=#945DF2;gradientDirection=north;fillColor=#5A30B5;strokeColor=#ffffff;dashed=0;verticalLabelPosition=bottom;verticalAlign=top;align=center;html=1;fontSize=12;fontStyle=0;aspect=fixed;shape=mxgraph.aws4.resourceIcon;resIcon=mxgraph.aws4.quicksight;" vertex="1" parent="8itjGVCMwVhG1kfjSsnW-1">
          <mxGeometry x="658" y="326" width="54" height="54" as="geometry" />
        </mxCell>
        <mxCell id="6MaKEtEqFqhA6RrxHM5q-82" value="" style="edgeStyle=orthogonalEdgeStyle;rounded=0;orthogonalLoop=1;jettySize=auto;html=1;fontSize=8;startArrow=none;startFill=0;endArrow=classic;endFill=1;" edge="1" parent="8itjGVCMwVhG1kfjSsnW-1" source="6MaKEtEqFqhA6RrxHM5q-122" target="6MaKEtEqFqhA6RrxHM5q-77">
          <mxGeometry relative="1" as="geometry">
            <mxPoint x="485" y="98" as="targetPoint" />
            <Array as="points">
              <mxPoint x="613" y="58" />
              <mxPoint x="613" y="80" />
            </Array>
          </mxGeometry>
        </mxCell>
        <mxCell id="6MaKEtEqFqhA6RrxHM5q-80" value="&lt;font style=&quot;font-size: 8px&quot;&gt;Kinesis DataStreams&lt;/font&gt;" style="sketch=0;points=[[0,0,0],[0.25,0,0],[0.5,0,0],[0.75,0,0],[1,0,0],[0,1,0],[0.25,1,0],[0.5,1,0],[0.75,1,0],[1,1,0],[0,0.25,0],[0,0.5,0],[0,0.75,0],[1,0.25,0],[1,0.5,0],[1,0.75,0]];outlineConnect=0;fontColor=#232F3E;gradientColor=#945DF2;gradientDirection=north;fillColor=#5A30B5;strokeColor=#ffffff;dashed=0;verticalLabelPosition=bottom;verticalAlign=top;align=center;html=1;fontSize=12;fontStyle=0;aspect=fixed;shape=mxgraph.aws4.resourceIcon;resIcon=mxgraph.aws4.kinesis_data_streams;" vertex="1" parent="8itjGVCMwVhG1kfjSsnW-1">
          <mxGeometry x="454" y="36" width="44" height="44" as="geometry" />
        </mxCell>
        <mxCell id="6MaKEtEqFqhA6RrxHM5q-88" value="Internet &amp;amp;&lt;br&gt;PSTN" style="outlineConnect=0;dashed=0;verticalLabelPosition=bottom;verticalAlign=top;align=center;html=1;shape=mxgraph.aws3.internet_2;fillColor=#D2D3D3;gradientColor=none;fontSize=8;" vertex="1" parent="8itjGVCMwVhG1kfjSsnW-1">
          <mxGeometry x="-8.280000000000001" y="120" width="38.28" height="26" as="geometry" />
        </mxCell>
        <mxCell id="6MaKEtEqFqhA6RrxHM5q-111" value="" style="edgeStyle=orthogonalEdgeStyle;rounded=0;orthogonalLoop=1;jettySize=auto;html=1;fontSize=8;startArrow=none;startFill=0;endArrow=classic;endFill=1;entryX=0;entryY=0.5;entryDx=0;entryDy=0;entryPerimeter=0;" edge="1" parent="8itjGVCMwVhG1kfjSsnW-1" source="6MaKEtEqFqhA6RrxHM5q-88" target="8itjGVCMwVhG1kfjSsnW-8">
          <mxGeometry relative="1" as="geometry" />
        </mxCell>
        <mxCell id="6MaKEtEqFqhA6RrxHM5q-121" value="" style="edgeStyle=orthogonalEdgeStyle;rounded=0;orthogonalLoop=1;jettySize=auto;html=1;fontSize=10;startArrow=none;startFill=0;endArrow=classic;endFill=1;" edge="1" parent="8itjGVCMwVhG1kfjSsnW-1" source="6MaKEtEqFqhA6RrxHM5q-119">
          <mxGeometry relative="1" as="geometry">
            <mxPoint x="670" y="106" as="targetPoint" />
          </mxGeometry>
        </mxCell>
        <mxCell id="6MaKEtEqFqhA6RrxHM5q-119" value="&lt;font style=&quot;font-size: 10px&quot;&gt;Call Recordings&lt;br&gt;and Transcripts&lt;/font&gt;" style="shape=image;html=1;verticalAlign=top;verticalLabelPosition=bottom;labelBackgroundColor=#ffffff;imageAspect=0;aspect=fixed;image=https://cdn0.iconfinder.com/data/icons/google-material-design-3-0/48/ic_mic_48px-128.png;fontSize=8;" vertex="1" parent="8itjGVCMwVhG1kfjSsnW-1">
          <mxGeometry x="353.5" y="86.5" width="38" height="38" as="geometry" />
        </mxCell>
        <mxCell id="6MaKEtEqFqhA6RrxHM5q-122" value="&lt;font style=&quot;font-size: 8px&quot;&gt;Call Metrics&lt;/font&gt;" style="aspect=fixed;html=1;points=[];align=center;image;fontSize=12;image=img/lib/azure2/management_governance/Metrics.svg;" vertex="1" parent="8itjGVCMwVhG1kfjSsnW-1">
          <mxGeometry x="543.85" y="49.25" width="16.15" height="17.5" as="geometry" />
        </mxCell>
        <mxCell id="6MaKEtEqFqhA6RrxHM5q-123" value="" style="edgeStyle=orthogonalEdgeStyle;rounded=0;orthogonalLoop=1;jettySize=auto;html=1;fontSize=8;startArrow=none;startFill=0;endArrow=none;endFill=1;" edge="1" parent="8itjGVCMwVhG1kfjSsnW-1" source="6MaKEtEqFqhA6RrxHM5q-80" target="6MaKEtEqFqhA6RrxHM5q-122">
          <mxGeometry relative="1" as="geometry">
            <mxPoint x="815" y="365" as="targetPoint" />
            <mxPoint x="648" y="328.02857142857135" as="sourcePoint" />
          </mxGeometry>
        </mxCell>
        <mxCell id="6MaKEtEqFqhA6RrxHM5q-65" value="" style="edgeStyle=orthogonalEdgeStyle;rounded=0;orthogonalLoop=1;jettySize=auto;html=1;fontSize=8;startArrow=classic;startFill=1;endArrow=none;endFill=0;" edge="1" parent="1">
          <mxGeometry relative="1" as="geometry">
            <mxPoint x="572.7385714285715" y="594" as="sourcePoint" />
            <mxPoint x="572.7100000000003" y="579" as="targetPoint" />
            <Array as="points">
              <mxPoint x="572.71" y="574" />
            </Array>
          </mxGeometry>
        </mxCell>
        <mxCell id="6MaKEtEqFqhA6RrxHM5q-108" value="" style="edgeStyle=none;rounded=0;orthogonalLoop=1;jettySize=auto;html=1;fontSize=8;startArrow=none;startFill=0;endArrow=classic;endFill=1;entryX=0.25;entryY=0;entryDx=0;entryDy=0;entryPerimeter=0;exitX=0.962;exitY=0.757;exitDx=0;exitDy=0;exitPerimeter=0;" edge="1" parent="1" source="6MaKEtEqFqhA6RrxHM5q-96">
          <mxGeometry relative="1" as="geometry">
            <mxPoint x="121" y="367.2352941176471" as="sourcePoint" />
            <mxPoint x="231" y="364" as="targetPoint" />
          </mxGeometry>
        </mxCell>
        <mxCell id="6MaKEtEqFqhA6RrxHM5q-87" value="Contact Center" style="fillColor=none;strokeColor=#5A6C86;dashed=1;verticalAlign=top;fontStyle=1;fontColor=#5A6C86;fontSize=11;" vertex="1" parent="1">
          <mxGeometry x="10" y="310" width="130" height="150" as="geometry" />
        </mxCell>
        <mxCell id="6MaKEtEqFqhA6RrxHM5q-89" value="Retail Customer" style="fillColor=none;strokeColor=#5A6C86;dashed=1;verticalAlign=top;fontStyle=1;fontColor=#5A6C86;fontSize=11;" vertex="1" parent="1">
          <mxGeometry x="15" y="500" width="120" height="80" as="geometry" />
        </mxCell>
        <mxCell id="6MaKEtEqFqhA6RrxHM5q-106" value="" style="edgeStyle=none;rounded=0;orthogonalLoop=1;jettySize=auto;html=1;fontSize=8;startArrow=none;startFill=0;endArrow=classic;endFill=1;exitX=1;exitY=0.5;exitDx=0;exitDy=0;" edge="1" parent="1" source="6MaKEtEqFqhA6RrxHM5q-115" target="6MaKEtEqFqhA6RrxHM5q-96">
          <mxGeometry relative="1" as="geometry">
            <mxPoint x="55.16000000000008" y="361.2473005921282" as="sourcePoint" />
          </mxGeometry>
        </mxCell>
        <mxCell id="6MaKEtEqFqhA6RrxHM5q-91" value="" style="shape=actor;whiteSpace=wrap;html=1;fontSize=8;" vertex="1" parent="1">
          <mxGeometry x="30" y="528.5" width="20" height="23" as="geometry" />
        </mxCell>
        <mxCell id="6MaKEtEqFqhA6RrxHM5q-102" value="" style="edgeStyle=none;rounded=0;orthogonalLoop=1;jettySize=auto;html=1;fontSize=8;startArrow=none;startFill=0;endArrow=classic;endFill=1;" edge="1" parent="1">
          <mxGeometry relative="1" as="geometry">
            <mxPoint x="50" y="540" as="sourcePoint" />
            <mxPoint x="90" y="540" as="targetPoint" />
          </mxGeometry>
        </mxCell>
        <mxCell id="6MaKEtEqFqhA6RrxHM5q-96" value="CCP" style="verticalLabelPosition=bottom;verticalAlign=top;html=1;shadow=0;dashed=0;strokeWidth=1;shape=mxgraph.android.phone2;strokeColor=#c0c0c0;fontSize=8;" vertex="1" parent="1">
          <mxGeometry x="90" y="340" width="20" height="30" as="geometry" />
        </mxCell>
        <mxCell id="6MaKEtEqFqhA6RrxHM5q-109" value="" style="edgeStyle=orthogonalEdgeStyle;rounded=0;orthogonalLoop=1;jettySize=auto;html=1;fontSize=8;startArrow=none;startFill=0;endArrow=classic;endFill=1;" edge="1" parent="1" source="6MaKEtEqFqhA6RrxHM5q-103" target="6MaKEtEqFqhA6RrxHM5q-88">
          <mxGeometry relative="1" as="geometry" />
        </mxCell>
        <mxCell id="6MaKEtEqFqhA6RrxHM5q-103" value="Phone" style="verticalLabelPosition=bottom;verticalAlign=top;html=1;shadow=0;dashed=0;strokeWidth=1;shape=mxgraph.android.phone2;strokeColor=#c0c0c0;fontSize=8;" vertex="1" parent="1">
          <mxGeometry x="90" y="525" width="20" height="30" as="geometry" />
        </mxCell>
        <mxCell id="6MaKEtEqFqhA6RrxHM5q-118" value="" style="edgeStyle=orthogonalEdgeStyle;rounded=0;orthogonalLoop=1;jettySize=auto;html=1;fontSize=8;startArrow=none;startFill=0;endArrow=classic;endFill=1;" edge="1" parent="1" source="6MaKEtEqFqhA6RrxHM5q-113" target="6MaKEtEqFqhA6RrxHM5q-88">
          <mxGeometry relative="1" as="geometry" />
        </mxCell>
        <mxCell id="6MaKEtEqFqhA6RrxHM5q-113" value="&lt;font style=&quot;font-size: 8px&quot;&gt;Contact Control Panel&lt;/font&gt;" style="sketch=0;aspect=fixed;html=1;points=[];align=center;image;fontSize=12;image=img/lib/mscae/Managed_Desktop.svg;" vertex="1" parent="1">
          <mxGeometry x="75.16" y="400" width="27.78" height="20" as="geometry" />
        </mxCell>
        <mxCell id="6MaKEtEqFqhA6RrxHM5q-115" value="" style="shape=image;html=1;verticalAlign=top;verticalLabelPosition=bottom;labelBackgroundColor=#ffffff;imageAspect=0;aspect=fixed;image=https://cdn1.iconfinder.com/data/icons/user-pictures/100/supportfemale-128.png;fontSize=8;" vertex="1" parent="1">
          <mxGeometry x="26.79" y="341.79" width="26.42" height="26.42" as="geometry" />
        </mxCell>
        <mxCell id="6MaKEtEqFqhA6RrxHM5q-116" value="" style="shape=image;html=1;verticalAlign=top;verticalLabelPosition=bottom;labelBackgroundColor=#ffffff;imageAspect=0;aspect=fixed;image=https://cdn2.iconfinder.com/data/icons/whcompare-isometric-web-hosting-servers/50/support-headset-128.png;fontSize=8;" vertex="1" parent="1">
          <mxGeometry x="23.21" y="395" width="30" height="30" as="geometry" />
        </mxCell>
        <mxCell id="6MaKEtEqFqhA6RrxHM5q-117" value="" style="edgeStyle=none;rounded=0;orthogonalLoop=1;jettySize=auto;html=1;fontSize=8;startArrow=none;startFill=0;endArrow=classic;endFill=1;exitX=1;exitY=0.5;exitDx=0;exitDy=0;" edge="1" parent="1">
          <mxGeometry relative="1" as="geometry">
            <mxPoint x="43.20999999999981" y="406" as="sourcePoint" />
            <mxPoint x="80" y="406" as="targetPoint" />
          </mxGeometry>
        </mxCell>
      </root>
    </mxGraphModel>
  </diagram>
</mxfile>
